<mxfile host="app.diagrams.net" agent="Mozilla/5.0 (Windows NT 10.0; Win64; x64) AppleWebKit/537.36 (KHTML, like Gecko) Chrome/131.0.0.0 Safari/537.36" version="24.8.8">
  <diagram name="Сторінка-1" id="ZC0TJGc8u9CWUMJS2ccp">
    <mxGraphModel grid="1" page="1" gridSize="10" guides="1" tooltips="1" connect="1" arrows="1" fold="1" pageScale="1" pageWidth="827" pageHeight="1169" math="0" shadow="0">
      <root>
        <mxCell id="0" />
        <mxCell id="1" parent="0" />
        <mxCell id="_rkDmwMVUOlGGs4CzSyf-3" value="" style="edgeStyle=orthogonalEdgeStyle;rounded=0;orthogonalLoop=1;jettySize=auto;html=1;" edge="1" parent="1" source="_rkDmwMVUOlGGs4CzSyf-1" target="_rkDmwMVUOlGGs4CzSyf-2">
          <mxGeometry relative="1" as="geometry" />
        </mxCell>
        <mxCell id="_rkDmwMVUOlGGs4CzSyf-1" value="&lt;font style=&quot;font-size: 18px;&quot;&gt;Start&lt;/font&gt;" style="ellipse;whiteSpace=wrap;html=1;" vertex="1" parent="1">
          <mxGeometry x="210" y="10" width="120" height="80" as="geometry" />
        </mxCell>
        <mxCell id="_rkDmwMVUOlGGs4CzSyf-28" value="" style="edgeStyle=orthogonalEdgeStyle;rounded=0;orthogonalLoop=1;jettySize=auto;html=1;" edge="1" parent="1" source="_rkDmwMVUOlGGs4CzSyf-2" target="_rkDmwMVUOlGGs4CzSyf-27">
          <mxGeometry relative="1" as="geometry" />
        </mxCell>
        <mxCell id="_rkDmwMVUOlGGs4CzSyf-2" value="&lt;div style=&quot;font-family: Consolas, &amp;quot;Courier New&amp;quot;, monospace; font-size: 14px; line-height: 19px; white-space: pre;&quot;&gt;&lt;div style=&quot;&quot;&gt;int operations;&lt;/div&gt;&lt;div style=&quot;&quot;&gt;string action;&lt;/div&gt;&lt;div style=&quot;&quot;&gt;int amount;&lt;/div&gt;&lt;div style=&quot;&quot;&gt;bool inDebt = false;&lt;/div&gt;&lt;div style=&quot;&quot;&gt;int balance = 0;&lt;/div&gt;&lt;br&gt;&lt;/div&gt;" style="rounded=0;whiteSpace=wrap;html=1;align=left;" vertex="1" parent="1">
          <mxGeometry x="187" y="110" width="166" height="110" as="geometry" />
        </mxCell>
        <mxCell id="_rkDmwMVUOlGGs4CzSyf-7" value="" style="edgeStyle=orthogonalEdgeStyle;rounded=0;orthogonalLoop=1;jettySize=auto;html=1;" edge="1" parent="1" source="_rkDmwMVUOlGGs4CzSyf-4" target="_rkDmwMVUOlGGs4CzSyf-6">
          <mxGeometry relative="1" as="geometry" />
        </mxCell>
        <mxCell id="_rkDmwMVUOlGGs4CzSyf-48" value="" style="edgeStyle=orthogonalEdgeStyle;rounded=0;orthogonalLoop=1;jettySize=auto;html=1;" edge="1" parent="1" source="_rkDmwMVUOlGGs4CzSyf-4" target="_rkDmwMVUOlGGs4CzSyf-47">
          <mxGeometry relative="1" as="geometry" />
        </mxCell>
        <mxCell id="_rkDmwMVUOlGGs4CzSyf-4" value="&lt;font style=&quot;font-size: 18px;&quot;&gt;і = 0, operations&lt;/font&gt;" style="shape=hexagon;perimeter=hexagonPerimeter2;whiteSpace=wrap;html=1;fixedSize=1;" vertex="1" parent="1">
          <mxGeometry x="215" y="320" width="110" height="60" as="geometry" />
        </mxCell>
        <mxCell id="_rkDmwMVUOlGGs4CzSyf-9" value="" style="edgeStyle=orthogonalEdgeStyle;rounded=0;orthogonalLoop=1;jettySize=auto;html=1;" edge="1" parent="1" source="_rkDmwMVUOlGGs4CzSyf-6" target="_rkDmwMVUOlGGs4CzSyf-8">
          <mxGeometry relative="1" as="geometry" />
        </mxCell>
        <mxCell id="_rkDmwMVUOlGGs4CzSyf-6" value="&lt;font style=&quot;font-size: 14px;&quot;&gt;string input&lt;/font&gt;" style="rounded=0;whiteSpace=wrap;html=1;" vertex="1" parent="1">
          <mxGeometry x="210" y="420" width="120" height="60" as="geometry" />
        </mxCell>
        <mxCell id="_rkDmwMVUOlGGs4CzSyf-11" value="" style="edgeStyle=orthogonalEdgeStyle;rounded=0;orthogonalLoop=1;jettySize=auto;html=1;" edge="1" parent="1" source="_rkDmwMVUOlGGs4CzSyf-8" target="_rkDmwMVUOlGGs4CzSyf-10">
          <mxGeometry relative="1" as="geometry" />
        </mxCell>
        <mxCell id="_rkDmwMVUOlGGs4CzSyf-8" value="&lt;font style=&quot;font-size: 14px;&quot;&gt;Вписуємо дію і число&lt;/font&gt;" style="shape=parallelogram;perimeter=parallelogramPerimeter;whiteSpace=wrap;html=1;fixedSize=1;" vertex="1" parent="1">
          <mxGeometry x="200" y="510" width="140" height="60" as="geometry" />
        </mxCell>
        <mxCell id="_rkDmwMVUOlGGs4CzSyf-17" value="" style="edgeStyle=orthogonalEdgeStyle;rounded=0;orthogonalLoop=1;jettySize=auto;html=1;" edge="1" parent="1" source="_rkDmwMVUOlGGs4CzSyf-10" target="_rkDmwMVUOlGGs4CzSyf-12">
          <mxGeometry relative="1" as="geometry" />
        </mxCell>
        <mxCell id="_rkDmwMVUOlGGs4CzSyf-10" value="&lt;div style=&quot;font-family: Consolas, &amp;quot;Courier New&amp;quot;, monospace; font-size: 14px; line-height: 19px; white-space: pre;&quot;&gt;&lt;div style=&quot;&quot;&gt;stringstream ss(input);&lt;/div&gt;&lt;div style=&quot;&quot;&gt;ss &amp;gt;&amp;gt; action &amp;gt;&amp;gt; amount;&lt;/div&gt;&lt;/div&gt;" style="rounded=0;whiteSpace=wrap;html=1;" vertex="1" parent="1">
          <mxGeometry x="140" y="600" width="260" height="60" as="geometry" />
        </mxCell>
        <mxCell id="_rkDmwMVUOlGGs4CzSyf-19" value="" style="edgeStyle=orthogonalEdgeStyle;rounded=0;orthogonalLoop=1;jettySize=auto;html=1;" edge="1" parent="1" source="_rkDmwMVUOlGGs4CzSyf-12" target="_rkDmwMVUOlGGs4CzSyf-18">
          <mxGeometry relative="1" as="geometry" />
        </mxCell>
        <mxCell id="_rkDmwMVUOlGGs4CzSyf-21" value="" style="edgeStyle=orthogonalEdgeStyle;rounded=0;orthogonalLoop=1;jettySize=auto;html=1;" edge="1" parent="1" source="_rkDmwMVUOlGGs4CzSyf-12" target="_rkDmwMVUOlGGs4CzSyf-20">
          <mxGeometry relative="1" as="geometry" />
        </mxCell>
        <mxCell id="_rkDmwMVUOlGGs4CzSyf-12" value="&lt;font style=&quot;font-size: 14px;&quot;&gt;action == earn ?&lt;/font&gt;" style="rhombus;whiteSpace=wrap;html=1;" vertex="1" parent="1">
          <mxGeometry x="210" y="700" width="120" height="80" as="geometry" />
        </mxCell>
        <mxCell id="_rkDmwMVUOlGGs4CzSyf-14" value="" style="endArrow=none;html=1;rounded=0;" edge="1" parent="1">
          <mxGeometry width="50" height="50" relative="1" as="geometry">
            <mxPoint x="600" y="1080" as="sourcePoint" />
            <mxPoint x="600" y="350" as="targetPoint" />
          </mxGeometry>
        </mxCell>
        <mxCell id="_rkDmwMVUOlGGs4CzSyf-15" value="" style="endArrow=classic;html=1;rounded=0;entryX=1;entryY=0.5;entryDx=0;entryDy=0;" edge="1" parent="1" target="_rkDmwMVUOlGGs4CzSyf-4">
          <mxGeometry width="50" height="50" relative="1" as="geometry">
            <mxPoint x="600" y="350" as="sourcePoint" />
            <mxPoint x="440" y="580" as="targetPoint" />
          </mxGeometry>
        </mxCell>
        <mxCell id="_rkDmwMVUOlGGs4CzSyf-18" value="&lt;div style=&quot;font-family: Consolas, &amp;quot;Courier New&amp;quot;, monospace; font-size: 14px; line-height: 19px; white-space: pre;&quot;&gt;&amp;nbsp;balance += amount;&lt;/div&gt;" style="rounded=0;whiteSpace=wrap;html=1;" vertex="1" parent="1">
          <mxGeometry x="380" y="710" width="160" height="60" as="geometry" />
        </mxCell>
        <mxCell id="_rkDmwMVUOlGGs4CzSyf-23" value="" style="edgeStyle=orthogonalEdgeStyle;rounded=0;orthogonalLoop=1;jettySize=auto;html=1;" edge="1" parent="1" source="_rkDmwMVUOlGGs4CzSyf-20" target="_rkDmwMVUOlGGs4CzSyf-22">
          <mxGeometry relative="1" as="geometry" />
        </mxCell>
        <mxCell id="_rkDmwMVUOlGGs4CzSyf-40" value="" style="edgeStyle=orthogonalEdgeStyle;rounded=0;orthogonalLoop=1;jettySize=auto;html=1;" edge="1" parent="1" source="_rkDmwMVUOlGGs4CzSyf-20" target="_rkDmwMVUOlGGs4CzSyf-37">
          <mxGeometry relative="1" as="geometry" />
        </mxCell>
        <mxCell id="_rkDmwMVUOlGGs4CzSyf-20" value="&lt;font style=&quot;font-size: 14px;&quot;&gt;action == spend ?&lt;/font&gt;" style="rhombus;whiteSpace=wrap;html=1;" vertex="1" parent="1">
          <mxGeometry x="205" y="820" width="130" height="80" as="geometry" />
        </mxCell>
        <mxCell id="_rkDmwMVUOlGGs4CzSyf-22" value="&lt;div style=&quot;font-family: Consolas, &amp;quot;Courier New&amp;quot;, monospace; font-size: 14px; line-height: 19px; white-space: pre;&quot;&gt;&amp;nbsp;balance -= amount;&lt;/div&gt;" style="rounded=0;whiteSpace=wrap;html=1;" vertex="1" parent="1">
          <mxGeometry x="380" y="830" width="160" height="60" as="geometry" />
        </mxCell>
        <mxCell id="_rkDmwMVUOlGGs4CzSyf-24" value="&lt;font style=&quot;font-size: 14px;&quot;&gt;YES&lt;/font&gt;" style="text;strokeColor=none;align=center;fillColor=none;html=1;verticalAlign=middle;whiteSpace=wrap;rounded=0;" vertex="1" parent="1">
          <mxGeometry x="325" y="710" width="60" height="30" as="geometry" />
        </mxCell>
        <mxCell id="_rkDmwMVUOlGGs4CzSyf-25" value="&lt;font style=&quot;font-size: 14px;&quot;&gt;YES&lt;/font&gt;" style="text;strokeColor=none;align=center;fillColor=none;html=1;verticalAlign=middle;whiteSpace=wrap;rounded=0;" vertex="1" parent="1">
          <mxGeometry x="325" y="830" width="60" height="30" as="geometry" />
        </mxCell>
        <mxCell id="_rkDmwMVUOlGGs4CzSyf-26" value="&lt;font style=&quot;font-size: 14px;&quot;&gt;NO&lt;/font&gt;" style="text;strokeColor=none;align=center;fillColor=none;html=1;verticalAlign=middle;whiteSpace=wrap;rounded=0;" vertex="1" parent="1">
          <mxGeometry x="275" y="790" width="60" height="30" as="geometry" />
        </mxCell>
        <mxCell id="_rkDmwMVUOlGGs4CzSyf-29" value="" style="edgeStyle=orthogonalEdgeStyle;rounded=0;orthogonalLoop=1;jettySize=auto;html=1;" edge="1" parent="1" source="_rkDmwMVUOlGGs4CzSyf-27" target="_rkDmwMVUOlGGs4CzSyf-4">
          <mxGeometry relative="1" as="geometry" />
        </mxCell>
        <mxCell id="_rkDmwMVUOlGGs4CzSyf-27" value="&lt;font style=&quot;font-size: 14px;&quot;&gt;Введення кількості дій&lt;/font&gt;" style="shape=parallelogram;perimeter=parallelogramPerimeter;whiteSpace=wrap;html=1;fixedSize=1;" vertex="1" parent="1">
          <mxGeometry x="210" y="240" width="120" height="60" as="geometry" />
        </mxCell>
        <mxCell id="_rkDmwMVUOlGGs4CzSyf-30" value="" style="endArrow=none;html=1;rounded=0;exitX=1;exitY=0.5;exitDx=0;exitDy=0;" edge="1" parent="1" source="_rkDmwMVUOlGGs4CzSyf-18">
          <mxGeometry width="50" height="50" relative="1" as="geometry">
            <mxPoint x="390" y="740" as="sourcePoint" />
            <mxPoint x="600" y="740" as="targetPoint" />
          </mxGeometry>
        </mxCell>
        <mxCell id="_rkDmwMVUOlGGs4CzSyf-31" value="" style="endArrow=none;html=1;rounded=0;exitX=1;exitY=0.5;exitDx=0;exitDy=0;" edge="1" parent="1">
          <mxGeometry width="50" height="50" relative="1" as="geometry">
            <mxPoint x="540" y="880" as="sourcePoint" />
            <mxPoint x="600" y="880" as="targetPoint" />
          </mxGeometry>
        </mxCell>
        <mxCell id="_rkDmwMVUOlGGs4CzSyf-36" value="&lt;font style=&quot;font-size: 14px;&quot;&gt;NO&lt;/font&gt;" style="text;strokeColor=none;align=center;fillColor=none;html=1;verticalAlign=middle;whiteSpace=wrap;rounded=0;" vertex="1" parent="1">
          <mxGeometry x="260" y="910" width="60" height="30" as="geometry" />
        </mxCell>
        <mxCell id="_rkDmwMVUOlGGs4CzSyf-39" value="" style="edgeStyle=orthogonalEdgeStyle;rounded=0;orthogonalLoop=1;jettySize=auto;html=1;" edge="1" parent="1" source="_rkDmwMVUOlGGs4CzSyf-37" target="_rkDmwMVUOlGGs4CzSyf-38">
          <mxGeometry relative="1" as="geometry" />
        </mxCell>
        <mxCell id="_rkDmwMVUOlGGs4CzSyf-65" value="" style="edgeStyle=orthogonalEdgeStyle;rounded=0;orthogonalLoop=1;jettySize=auto;html=1;" edge="1" parent="1" source="_rkDmwMVUOlGGs4CzSyf-37" target="_rkDmwMVUOlGGs4CzSyf-64">
          <mxGeometry relative="1" as="geometry" />
        </mxCell>
        <mxCell id="_rkDmwMVUOlGGs4CzSyf-37" value="&lt;font style=&quot;font-size: 14px;&quot;&gt;balan&lt;/font&gt;&lt;span style=&quot;font-size: 14px; background-color: initial;&quot;&gt;ce &amp;lt; 0 ?&lt;/span&gt;" style="rhombus;whiteSpace=wrap;html=1;" vertex="1" parent="1">
          <mxGeometry x="220" y="940" width="100" height="80" as="geometry" />
        </mxCell>
        <mxCell id="_rkDmwMVUOlGGs4CzSyf-38" value="&lt;font style=&quot;font-size: 14px;&quot;&gt;inDebt = true&lt;/font&gt;" style="rounded=0;whiteSpace=wrap;html=1;" vertex="1" parent="1">
          <mxGeometry x="210" y="1050" width="120" height="60" as="geometry" />
        </mxCell>
        <mxCell id="_rkDmwMVUOlGGs4CzSyf-41" value="&lt;font style=&quot;font-size: 14px;&quot;&gt;YES&lt;/font&gt;" style="text;strokeColor=none;align=center;fillColor=none;html=1;verticalAlign=middle;whiteSpace=wrap;rounded=0;" vertex="1" parent="1">
          <mxGeometry x="260" y="1010" width="60" height="30" as="geometry" />
        </mxCell>
        <mxCell id="_rkDmwMVUOlGGs4CzSyf-45" value="" style="endArrow=none;html=1;rounded=0;exitX=1;exitY=0.5;exitDx=0;exitDy=0;" edge="1" parent="1" source="_rkDmwMVUOlGGs4CzSyf-38">
          <mxGeometry width="50" height="50" relative="1" as="geometry">
            <mxPoint x="280" y="980" as="sourcePoint" />
            <mxPoint x="600" y="1080" as="targetPoint" />
          </mxGeometry>
        </mxCell>
        <mxCell id="_rkDmwMVUOlGGs4CzSyf-50" value="" style="edgeStyle=orthogonalEdgeStyle;rounded=0;orthogonalLoop=1;jettySize=auto;html=1;" edge="1" parent="1" source="_rkDmwMVUOlGGs4CzSyf-47" target="_rkDmwMVUOlGGs4CzSyf-49">
          <mxGeometry relative="1" as="geometry" />
        </mxCell>
        <mxCell id="_rkDmwMVUOlGGs4CzSyf-57" value="" style="edgeStyle=orthogonalEdgeStyle;rounded=0;orthogonalLoop=1;jettySize=auto;html=1;" edge="1" parent="1" source="_rkDmwMVUOlGGs4CzSyf-47" target="_rkDmwMVUOlGGs4CzSyf-56">
          <mxGeometry relative="1" as="geometry" />
        </mxCell>
        <mxCell id="_rkDmwMVUOlGGs4CzSyf-47" value="&lt;font style=&quot;font-size: 14px;&quot;&gt;inDebt = true&lt;/font&gt;" style="rhombus;whiteSpace=wrap;html=1;" vertex="1" parent="1">
          <mxGeometry x="-10" y="310" width="110" height="80" as="geometry" />
        </mxCell>
        <mxCell id="_rkDmwMVUOlGGs4CzSyf-49" value="&lt;font style=&quot;font-size: 14px;&quot;&gt;debt&lt;/font&gt;" style="shape=parallelogram;perimeter=parallelogramPerimeter;whiteSpace=wrap;html=1;fixedSize=1;" vertex="1" parent="1">
          <mxGeometry x="2.5" y="430" width="85" height="40" as="geometry" />
        </mxCell>
        <mxCell id="_rkDmwMVUOlGGs4CzSyf-51" value="&lt;font style=&quot;font-size: 14px;&quot;&gt;YES&lt;/font&gt;" style="text;strokeColor=none;align=center;fillColor=none;html=1;verticalAlign=middle;whiteSpace=wrap;rounded=0;" vertex="1" parent="1">
          <mxGeometry x="40" y="390" width="60" height="30" as="geometry" />
        </mxCell>
        <mxCell id="_rkDmwMVUOlGGs4CzSyf-52" value="&lt;font style=&quot;font-size: 14px;&quot;&gt;NO&lt;/font&gt;" style="text;strokeColor=none;align=center;fillColor=none;html=1;verticalAlign=middle;whiteSpace=wrap;rounded=0;" vertex="1" parent="1">
          <mxGeometry x="170" y="320" width="60" height="30" as="geometry" />
        </mxCell>
        <mxCell id="_rkDmwMVUOlGGs4CzSyf-53" value="&lt;font style=&quot;font-size: 14px;&quot;&gt;YES&lt;/font&gt;" style="text;strokeColor=none;align=center;fillColor=none;html=1;verticalAlign=middle;whiteSpace=wrap;rounded=0;" vertex="1" parent="1">
          <mxGeometry x="320" y="320" width="60" height="30" as="geometry" />
        </mxCell>
        <mxCell id="_rkDmwMVUOlGGs4CzSyf-54" value="&lt;font style=&quot;font-size: 14px;&quot;&gt;YES&lt;/font&gt;" style="text;strokeColor=none;align=center;fillColor=none;html=1;verticalAlign=middle;whiteSpace=wrap;rounded=0;" vertex="1" parent="1">
          <mxGeometry x="260" y="380" width="60" height="30" as="geometry" />
        </mxCell>
        <mxCell id="_rkDmwMVUOlGGs4CzSyf-56" value="&lt;font style=&quot;font-size: 14px;&quot;&gt;chinazes&lt;/font&gt;" style="shape=parallelogram;perimeter=parallelogramPerimeter;whiteSpace=wrap;html=1;fixedSize=1;" vertex="1" parent="1">
          <mxGeometry x="2.5" y="240" width="85" height="40" as="geometry" />
        </mxCell>
        <mxCell id="_rkDmwMVUOlGGs4CzSyf-58" value="&lt;font style=&quot;font-size: 14px;&quot;&gt;NO&lt;/font&gt;" style="text;strokeColor=none;align=center;fillColor=none;html=1;verticalAlign=middle;whiteSpace=wrap;rounded=0;" vertex="1" parent="1">
          <mxGeometry x="40" y="290" width="60" height="30" as="geometry" />
        </mxCell>
        <mxCell id="_rkDmwMVUOlGGs4CzSyf-59" value="&lt;font style=&quot;font-size: 18px;&quot;&gt;End&lt;/font&gt;" style="ellipse;whiteSpace=wrap;html=1;" vertex="1" parent="1">
          <mxGeometry x="-230" y="290" width="120" height="80" as="geometry" />
        </mxCell>
        <mxCell id="_rkDmwMVUOlGGs4CzSyf-60" value="" style="endArrow=none;html=1;rounded=0;entryX=0.155;entryY=0.261;entryDx=0;entryDy=0;entryPerimeter=0;" edge="1" parent="1" target="_rkDmwMVUOlGGs4CzSyf-56">
          <mxGeometry width="50" height="50" relative="1" as="geometry">
            <mxPoint x="-40" y="250" as="sourcePoint" />
            <mxPoint x="100" y="330" as="targetPoint" />
          </mxGeometry>
        </mxCell>
        <mxCell id="_rkDmwMVUOlGGs4CzSyf-61" value="" style="endArrow=none;html=1;rounded=0;entryX=0;entryY=0.75;entryDx=0;entryDy=0;" edge="1" parent="1" target="_rkDmwMVUOlGGs4CzSyf-49">
          <mxGeometry width="50" height="50" relative="1" as="geometry">
            <mxPoint x="-40" y="460" as="sourcePoint" />
            <mxPoint x="6" y="460" as="targetPoint" />
          </mxGeometry>
        </mxCell>
        <mxCell id="_rkDmwMVUOlGGs4CzSyf-62" value="" style="endArrow=none;html=1;rounded=0;" edge="1" parent="1">
          <mxGeometry width="50" height="50" relative="1" as="geometry">
            <mxPoint x="-40" y="460" as="sourcePoint" />
            <mxPoint x="-40" y="250" as="targetPoint" />
          </mxGeometry>
        </mxCell>
        <mxCell id="_rkDmwMVUOlGGs4CzSyf-63" value="" style="endArrow=classic;html=1;rounded=0;entryX=1;entryY=0.5;entryDx=0;entryDy=0;" edge="1" parent="1" target="_rkDmwMVUOlGGs4CzSyf-59">
          <mxGeometry width="50" height="50" relative="1" as="geometry">
            <mxPoint x="-40" y="330" as="sourcePoint" />
            <mxPoint x="50" y="320" as="targetPoint" />
          </mxGeometry>
        </mxCell>
        <mxCell id="_rkDmwMVUOlGGs4CzSyf-64" value="&lt;font style=&quot;font-size: 14px;&quot;&gt;inDebt = false&lt;/font&gt;" style="rounded=0;whiteSpace=wrap;html=1;" vertex="1" parent="1">
          <mxGeometry x="380" y="950" width="120" height="60" as="geometry" />
        </mxCell>
        <mxCell id="_rkDmwMVUOlGGs4CzSyf-66" value="&lt;font style=&quot;font-size: 14px;&quot;&gt;NO&lt;/font&gt;" style="text;strokeColor=none;align=center;fillColor=none;html=1;verticalAlign=middle;whiteSpace=wrap;rounded=0;" vertex="1" parent="1">
          <mxGeometry x="310" y="950" width="60" height="30" as="geometry" />
        </mxCell>
        <mxCell id="_rkDmwMVUOlGGs4CzSyf-68" value="" style="endArrow=none;html=1;rounded=0;exitX=0.993;exitY=0.624;exitDx=0;exitDy=0;exitPerimeter=0;" edge="1" parent="1" source="_rkDmwMVUOlGGs4CzSyf-64">
          <mxGeometry width="50" height="50" relative="1" as="geometry">
            <mxPoint x="370" y="1000" as="sourcePoint" />
            <mxPoint x="600" y="987" as="targetPoint" />
          </mxGeometry>
        </mxCell>
      </root>
    </mxGraphModel>
  </diagram>
</mxfile>
